PathFileType	4	(X/Y/Z)	..\data\2015035\dynamic\2015035_C5_03.trc
DataRate	CameraRate	NumFrames	NumMarkers	Units	OrigDataRate	OrigDataStartFrame	OrigNumFrames
100.000000	100.000000	4	52	mm	100.000000	100	161
Frame#	Time	L_IAS			L_IPS			R_IPS			R_IAS			L_FTC			L_FLE			L_FME			L_FAX			L_TTC			L_FAL			L_TAM			L_FCC			L_FM1			L_FM2			L_FM5			R_FTC			R_FLE			R_FME			R_FAX			R_TTC			R_FAL			R_TAM			R_FCC			R_FM1			R_FM2			R_FM5			CV7			TV10			SXS			SJN			L_SIA			L_SRS			L_SAA			L_SAE			L_HLE			L_HME			L_UOA			L_RSP			L_UHE			L_HM2			L_HM5			R_SIA			R_SRS			R_SAA			R_SAE			R_HLE			R_HME			R_UOA			R_RSP			R_UHE			R_HM2			R_HM5			
		X1	Y1	Z1	X2	Y2	Z2	X3	Y3	Z3	X4	Y4	Z4	X5	Y5	Z5	X6	Y6	Z6	X7	Y7	Z7	X8	Y8	Z8	X9	Y9	Z9	X10	Y10	Z10	X11	Y11	Z11	X12	Y12	Z12	X13	Y13	Z13	X14	Y14	Z14	X15	Y15	Z15	X16	Y16	Z16	X17	Y17	Z17	X18	Y18	Z18	X19	Y19	Z19	X20	Y20	Z20	X21	Y21	Z21	X22	Y22	Z22	X23	Y23	Z23	X24	Y24	Z24	X25	Y25	Z25	X26	Y26	Z26	X27	Y27	Z27	X28	Y28	Z28	X29	Y29	Z29	X30	Y30	Z30	X31	Y31	Z31	X32	Y32	Z32	X33	Y33	Z33	X34	Y34	Z34	X35	Y35	Z35	X36	Y36	Z36	X37	Y37	Z37	X38	Y38	Z38	X39	Y39	Z39	X40	Y40	Z40	X41	Y41	Z41	X42	Y42	Z42	X43	Y43	Z43	X44	Y44	Z44	X45	Y45	Z45	X46	Y46	Z46	X47	Y47	Z47	X48	Y48	Z48	X49	Y49	Z49	X50	Y50	Z50	X51	Y51	Z51	X52	Y52	Z52	

101	1	181.9922637939453	946.9776000976565	122.486068725586	-3.455193519592315	975.6546630859377	234.3499450683594	3.1869964599609	957.4572753906252	316.9324340820313	188.6958770751953	939.2749633789065	391.4240112304689	73.33683013916016	892.2852172851565	79.51672363281253	-47.2713317871094	473.5497131347657	105.1554183959961	-52.01538848876957	486.5194396972657	246.2341003417969	-75.80425262451175	430.0614318847657	105.9263000488281	-24.88651847839358	384.7463378906251	161.4392700195313	-214.2829742431641	92.02151489257814	147.8736267089844	-190.4474334716797	102.8541564941407	243.0153503417969	-269.3298034667969	65.50720977783205	200.0312652587891	-79.0161514282227	19.73950004577637	227.3605041503907	-59.37225341796879	31.6814193725586	171.3302154541016	-121.7176513671875	22.13200569152832	120.5484237670899	123.7675247192383	847.0000610351565	448.6781616210939	310.1570129394531	465.948211669922	400.6163635253908	311.2362976074219	474.0819702148439	275.8360900878907	302.1668395996094	417.1814880371095	398.3663940429689	374.5270080566406	423.088348388672	355.7884521484376	404.6704711914063	64.36344146728517	372.0558471679689	446.9728393554688	105.4874267578125	293.303436279297	398.5342102050782	17.21275901794434	317.6773376464845	576.3811645507814	84.78137969970705	317.344451904297	571.1514892578126	104.1146926879883	365.7351379394532	526.0617065429689	58.13058090209962	410.2603759765627	39.22820663452146	1474.753051757813	250.8330535888672	-23.70169830322269	1186.695556640625	261.1131286621094	225.4632568359375	1214.411376953125	256.7783203125001	178.4084625244141	1384.582885742188	258.7163696289063	-19.32701492309572	1263.177368164063	131.0064086914063	3.857832670211774	1408.725341796875	154.3106231689453	84.80547332763672	1405.697143554688	62.23639297485354	133.4557189941407	1411.259643554688	62.88967132568362	211.4144592285157	1134.891967773438	-58.18149185180663	178.1635894775391	1087.909423828125	20.32037544250491	189.3047485351563	1072.50439453125	-36.61495971679686	457.0967712402345	1051.417724609375	25.46886634826667	444.1061096191407	1007.086303710938	-34.15980148315425	545.7294921875001	1038.40576171875	29.405559539795	509.6451721191407	959.3906860351565	-25.18824195861811	-39.28652954101567	1266.171752929688	371.8395080566407	1.429736733436542	1408.694580078125	350.1487121582032	67.73033905029293	1399.1923828125	451.4956970214845	117.2073287963867	1389.886108398438	465.6455383300782	24.95710563659662	1099.046875	536.1480102539064	-22.42784500122076	1106.51904296875	455.7621154785157	-26.33238029479988	1086.401000976563	518.4016723632814	66.84951782226558	829.573181152344	483.7996826171876	16.45327568054193	833.5232543945315	543.3931274414064	65.51700592041011	734.2361450195314	478.1548156738282	-5.500849246978828	769.4893188476565	549.0711669921876	
102	1.01	197.0524291992188	945.0699462890627	122.6523361206055	12.29203891754148	973.4254150390627	235.9870758056641	19.42007255554196	955.2777099609377	318.5211791992188	205.3169860839844	936.9744262695315	391.6887512207032	87.54730224609375	890.4963378906252	80.50103759765628	-35.20973205566408	472.8984985351564	105.3962860107422	-39.33870697021488	485.7047729492189	246.4881591796876	-65.03055572509768	429.8081970214845	106.2278442382813	-14.49871444702151	383.3278198242188	161.6111602783203	-212.3653411865235	95.40132904052736	146.9410552978516	-188.6226501464844	105.795883178711	242.0476226806641	-268.2832946777344	70.35826110839845	198.81494140625	-78.88796234130864	19.513090133667	227.268051147461	-59.15570831298832	31.72571182250977	171.4976654052735	-121.1466979980469	22.32558059692383	120.3394088745117	140.7003021240234	844.8174438476565	449.466278076172	326.2326354980469	463.6426696777345	400.3663330078127	325.5479431152344	471.2995910644532	275.3485717773439	319.0081787109375	414.6707763671876	398.5242614746095	390.8810729980469	422.0249938964845	354.902557373047	428.9205627441407	63.59225463867189	372.937957763672	469.4324340820313	105.3139190673828	293.5340270996095	422.8980407714844	16.21789360046387	318.8148803710939	599.6923828125001	87.30352020263673	315.9333496093751	595.2599487304689	107.2726669311524	364.590545654297	551.1719360351564	59.65224838256837	409.3548889160158	55.16521072387694	1472.378784179688	252.639389038086	-7.947611331939731	1184.5419921875	262.3943786621094	241.3424987792969	1212.067626953125	258.0896606445314	194.3943634033203	1382.25048828125	260.4950561523438	-3.389513254165667	1261.157348632813	132.3801574707032	19.88627433776854	1406.718139648438	155.8227081298828	100.992172241211	1403.77880859375	63.91434097290042	149.5072631835938	1409.442993164063	64.56303405761722	227.6551818847657	1133.626831054688	-57.34767913818358	193.5692138671876	1085.633544921875	19.739372253418	206.0142364501954	1070.805786132813	-35.86235046386717	473.9000244140626	1053.81201171875	27.16549110412604	461.7388610839845	1008.990051269531	-32.32300186157222	562.7348632812501	1042.405151367188	31.24312973022468	528.2256469726564	962.424987792969	-23.03395843505853	-23.93716049194341	1263.882080078125	372.6369628906251	17.11945533752437	1406.237915039063	351.5587158203126	83.11437988281246	1396.4326171875	453.0239257812501	132.521255493164	1387.072387695313	467.3353881835939	39.45466232299799	1096.218383789063	536.7506713867189	-7.266093254089413	1103.711059570313	455.9691162109376	-11.68001270294196	1083.61669921875	518.5316772460939	81.72531890869136	826.760437011719	484.8031311035157	30.66378211975092	830.715515136719	543.8499755859376	80.84842681884761	731.6527709960939	479.4234313964845	8.529842376708919	766.5866699218751	549.2028198242189	
103	1.02	212.5415954589844	943.3005981445315	122.953956604004	28.30527877807615	971.2952880859377	237.5185089111329	35.86669158935543	953.263366699219	320.0465087890626	222.1561584472656	934.9599609375002	392.0159301757814	102.2304840087891	888.6527099609377	81.47778320312503	-22.18426322937013	472.0662231445314	105.5649871826172	-25.81934738159184	484.6824645996095	246.5980224609376	-53.38234329223636	429.4151306152345	106.4375076293946	-3.256298542022726	381.6973876953126	161.6250915527344	-210.0790252685548	99.20774841308597	146.0230560302734	-186.238510131836	109.0041198730469	241.0226593017578	-266.6928405761719	75.84504699707033	197.684814453125	-78.93806457519536	19.12472915649414	227.2546691894532	-59.16107940673832	31.6755657196045	171.7481842041016	-120.6029891967774	22.50655555725098	120.1785507202149	158.0751800537109	843.0625000000002	450.3159790039064	342.7634582519531	461.7009277343751	400.1765441894533	340.219970703125	468.8137207031251	275.024383544922	335.9958190917969	412.546600341797	398.7628173828127	407.2972412109376	420.8751220703126	354.0239562988282	449.9744567871094	62.71438598632814	373.6185302734376	488.9948730468751	104.5906295776367	293.5202941894532	443.4517822265626	15.35450458526612	319.7769470214845	619.7152099609376	87.90067291259767	314.1843872070314	616.1383056640626	108.3762359619141	363.1523437500001	572.7662963867189	59.81263732910158	408.1684875488283	71.24322509765624	1470.139770507813	254.6179351806641	8.047263145446747	1182.520874023438	263.6542663574219	257.48583984375	1209.966064453125	259.5162353515626	210.5438690185547	1380.138427734375	262.3898010253907	12.7132167816162	1259.322387695313	133.8224182128907	36.03522491455077	1404.875244140625	157.4978637695313	117.2662963867188	1402.052368164063	65.7536315917969	165.6407623291016	1407.822265625	66.357048034668	243.4593200683594	1132.34033203125	-56.35068511962889	208.0545349121094	1083.185546875	18.74985694885257	222.2430572509766	1069.2109375	-34.94753265380857	490.1158447265626	1055.494384765625	28.85186386108405	478.6102294921876	1010.267456054688	-30.50258445739741	579.0870971679689	1045.402465820313	33.03684234619148	545.8544311523439	964.643981933594	-20.93605232238763	-8.331586837768603	1261.690185546875	373.5422058105469	33.01111221313473	1403.896728515625	353.1441955566407	98.75060272216794	1393.765991210938	454.726043701172	148.1060485839843	1384.377075195313	469.1565551757814	54.55975723266597	1093.40576171875	537.4328002929689	8.391662597656197	1100.916748046875	456.3264770507814	3.564620256423888	1080.84423828125	518.8020629882814	97.13491058349607	823.9439697265627	485.8154296875001	45.55030822753901	827.9378662109377	544.4085083007814	96.73752593994138	729.0955200195314	480.7261352539064	23.27129364013665	763.7378540039064	549.4852294921876	
104	1.03	228.4813385009766	941.6583251953127	123.4265136718751	44.56952667236326	969.2722778320315	238.9196472167969	52.501594543457	951.4267578125002	321.4851684570313	239.1827850341797	933.2554931640627	392.4375305175783	117.4243621826172	886.731140136719	82.43764495849612	-8.111839294433608	471.0093078613282	105.6265411376953	-11.31961059570316	483.3542480468751	246.5133209228516	-40.74343490600588	428.8558349609376	106.5066757202149	8.938021659851056	379.8094787597657	161.3997955322266	-207.2825622558595	103.4707794189453	145.1574554443359	-183.0906066894532	112.4594497680664	239.9562072753907	-264.3376770019532	82.04317474365236	196.7137603759766	-79.21684265136723	18.59548950195313	227.3384246826172	-59.44211196899418	31.52084541320801	172.0951080322266	-120.1058731079102	22.71901893615723	120.0928955078125	175.8483276367187	841.744812011719	451.2301330566407	359.7641906738281	460.1534118652345	400.0502929687502	355.3101501464844	466.6831054687501	274.8768310546876	353.1597900390625	410.8310546875001	399.0704345703127	423.8231506347657	419.6624755859376	353.1626892089845	467.9249572753907	61.66431808471681	374.112030029297	505.7917480468751	103.2615737915039	293.2969665527345	460.3059692382813	14.55041980743409	320.5848083496095	636.6062011718751	86.46615600585939	312.1949768066407	633.9094848632814	107.2479934692383	361.5119934082032	590.9315795898439	58.50746917724611	406.797821044922	87.45870971679686	1468.056274414063	256.7567749023438	24.27733039855955	1180.652221679688	264.8985900878907	273.8918762207031	1208.1201171875	261.0564270019532	226.8503570556641	1378.261352539063	264.3941955566407	28.97320747375487	1257.679321289063	135.3374481201172	52.29874420166015	1403.21044921875	159.3369598388672	133.630859375	1400.531005859375	67.74956512451175	181.8677520751953	1406.39990234375	68.27409362792973	258.8193054199219	1131.041870117188	-55.19676589965819	221.6095275878907	1080.555786132813	17.33343696594241	237.9757385253907	1067.732788085938	-33.8846855163574	505.7683410644532	1056.460571289063	30.52281570434577	494.7453002929689	1010.911926269531	-28.71007919311518	594.8125000000001	1047.376708984375	34.78759765625008	562.5687255859376	966.0296630859377	-18.9111366271972	7.554721355438188	1259.583374023438	374.5903320312501	49.10706710815427	1401.68408203125	354.9038085937501	114.6427307128906	1391.209838867188	456.5990600585939	163.9667816162109	1381.818603515625	471.1055603027345	70.28022766113276	1090.628295898438	538.2056274414064	24.54443168640132	1098.1611328125	456.848846435547	19.40558242797846	1078.103149414063	519.2301635742189	113.0835876464843	821.1480102539065	486.8304748535157	61.12403488159175	825.2080688476565	545.0715332031251	113.1658096313476	726.5731201171876	482.0370178222657	38.73816299438471	760.9628295898439	549.9250488281251	
